name Walk7.mot
datacolumns 19
datarows 25
range 3.74500000 3.86500000
endheader

                time	   L_ground_force_vx	   L_ground_force_vy	   L_ground_force_vz	   L_ground_force_px	   L_ground_force_py	   L_ground_force_pz	   R_ground_force_vx	   R_ground_force_vy	   R_ground_force_vz	   R_ground_force_px	   R_ground_force_py	   R_ground_force_pz	   L_ground_torque_x	   L_ground_torque_y	   L_ground_torque_z	   R_ground_torque_x	   R_ground_torque_y	   R_ground_torque_z	
          3.74500000	          0.00000000	          0.00000000	          0.00000000	         -0.00000000	          0.00000000	         -0.00000000	         13.76419711	         64.82968333	         -1.10824402	          0.19189939	          0.00000000	          0.09860280	          0.00000000	         -0.00000000	          0.00000000	          0.00000000	         -3.40206742	          0.00000000	
          3.75000000	          0.00000000	          0.00000000	          0.00000000	         -0.00000000	          0.00000000	         -0.00000000	          9.05818394	         42.14733412	         -0.36314614	          0.16066849	          0.00000000	          0.08170773	          0.00000000	         -0.00000000	          0.00000000	          0.00000000	         -2.47770468	          0.00000000	
          3.75500000	          0.00000000	          0.00000000	          0.00000000	         -0.00000000	          0.00000000	         -0.00000000	          5.32205963	         24.28234111	          0.14203322	          0.12819212	          0.00000000	          0.06453197	          0.00000000	         -0.00000000	          0.00000000	          0.00000000	         -1.68957427	          0.00000000	
          3.76000000	          0.00000000	          0.00000000	          0.00000000	         -0.00000000	          0.00000000	         -0.00000000	          2.50523162	         10.90550698	          0.45475316	          0.09722906	          0.00000000	          0.04841465	          0.00000000	          0.00000000	          0.00000000	          0.00000000	         -1.05053979	          0.00000000	
          3.76500000	          0.00000000	          0.00000000	         -0.00000000	         -0.00000000	          0.00000000	         -0.00000000	          0.50072086	          1.46470864	          0.61932892	          0.06968340	          0.00000000	          0.03424991	          0.00000000	          0.00000000	          0.00000000	          0.00000000	         -0.55765436	          0.00000000	
          3.77000000	          0.00000000	          0.00000000	         -0.00000000	         -0.00000000	          0.00000000	         -0.00000000	         -0.82433403	         -4.70533319	          0.67588674	          0.04650779	          0.00000000	          0.02245758	          0.00000000	          0.00000000	          0.00000000	          0.00000000	         -0.19747277	          0.00000000	
          3.77500000	          0.00000000	          0.00000000	         -0.00000000	         -0.00000000	          0.00000000	         -0.00000000	         -1.60887120	         -8.28992652	          0.65870170	          0.02796752	          0.00000000	          0.01311927	          0.00000000	          0.00000000	          0.00000000	          0.00000000	          0.04912242	          0.00000000	
          3.78000000	          0.00000000	          0.00000000	         -0.00000000	         -0.00000000	          0.00000000	         -0.00000000	         -1.98473744	         -9.93302384	          0.59558593	          0.01386611	          0.00000000	          0.00609321	          0.00000000	          0.00000000	          0.00000000	          0.00000000	          0.20337415	          0.00000000	
          3.78500000	          0.00000000	          0.00000000	         -0.00000000	         -0.00000000	          0.00000000	         -0.00000000	         -2.06880444	        -10.20112823	          0.50800737	          0.00372650	          0.00000000	          0.00110564	          0.00000000	          0.00000000	          0.00000000	          0.00000000	          0.28620836	          0.00000000	
          3.79000000	          0.00000000	          0.00000000	         -0.00000000	         -0.00000000	          0.00000000	         -0.00000000	         -1.95909756	         -9.56627249	          0.41166769	         -0.00307055	          0.00000000	         -0.00218024	          0.00000000	          0.00000000	          0.00000000	          0.00000000	          0.31669271	          0.00000000	
          3.79500000	          0.00000000	         -0.00000000	         -0.00000000	         -0.00000000	          0.00000000	         -0.00000000	         -1.73380374	         -8.40257531	          0.31732898	         -0.00718652	          0.00000000	         -0.00411497	          0.00000000	          0.00000000	          0.00000000	          0.00000000	          0.31119517	          0.00000000	
          3.80000000	         -0.00000000	         -0.00000000	         -0.00000000	         -0.00000000	          0.00000000	         -0.00000000	         -1.45220426	         -6.99177675	          0.23173451	         -0.00925765	          0.00000000	         -0.00503024	          0.00000000	          0.00000000	          0.00000000	          0.00000000	          0.28305793	          0.00000000	
          3.80500000	         -0.00000000	         -0.00000000	         -0.00000000	         -0.00000000	          0.00000000	         -0.00000000	         -1.15676817	         -5.53409396	          0.15851704	         -0.00985366	          0.00000000	         -0.00521935	          0.00000000	          0.00000000	          0.00000000	          0.00000000	          0.24262760	          0.00000000	
          3.81000000	         -0.00000000	         -0.00000000	         -0.00000000	         -0.00000000	          0.00000000	         -0.00000000	         -0.87582436	         -4.16163030	          0.09902731	         -0.00945656	          0.00000000	         -0.00492784	          0.00000000	          0.00000000	          0.00000000	          0.00000000	          0.19751151	          0.00000000	
          3.81500000	         -0.00000000	         -0.00000000	         -0.00000000	          0.00000000	          0.00000000	          0.00000000	         -0.62639341	         -2.95236131	          0.05304584	         -0.00845401	          0.00000000	         -0.00435116	          0.00000000	          0.00000000	          0.00000000	          0.00000000	          0.15295866	          0.00000000	
          3.82000000	         -0.00000000	         -0.00000000	         -0.00000000	          0.00000000	          0.00000000	          0.00000000	         -0.41689804	         -1.94338445	          0.01936352	         -0.00714248	          0.00000000	         -0.00363723	          0.00000000	          0.00000000	          0.00000000	          0.00000000	          0.11229060	          0.00000000	
          3.82500000	         -0.00000000	         -0.00000000	         -0.00000000	          0.00000000	          0.00000000	          0.00000000	         -0.24958112	         -1.14264893	         -0.00376771	         -0.00573654	          0.00000000	         -0.00289173	          0.00000000	          0.00000000	          0.00000000	          0.00000000	          0.07733013	          0.00000000	
          3.83000000	         -0.00000000	         -0.00000000	         -0.00000000	          0.00000000	          0.00000000	          0.00000000	         -0.12254517	         -0.53878303	         -0.01830334	         -0.00438125	          0.00000000	         -0.00218496	          0.00000000	         -0.00000000	          0.00000000	          0.00000000	          0.04879478	          0.00000000	
          3.83500000	         -0.00000000	         -0.00000000	          0.00000000	          0.00000000	          0.00000000	          0.00000000	         -0.03138763	         -0.10892431	         -0.02617719	         -0.00316562	          0.00000000	         -0.00155892	          0.00000000	         -0.00000000	          0.00000000	          0.00000000	          0.02663654	          0.00000000	
          3.84000000	         -0.00000000	         -0.00000000	          0.00000000	          0.00000000	          0.00000000	          0.00000000	          0.02955231	          0.17535036	         -0.02915624	         -0.00213570	          0.00000000	         -0.00103416	          0.00000000	         -0.00000000	          0.00000000	          0.00000000	          0.01032026	          0.00000000	
          3.84500000	         -0.00000000	         -0.00000000	          0.00000000	          0.00000000	          0.00000000	          0.00000000	          0.06629468	          0.34378211	         -0.02876073	         -0.00130632	          0.00000000	         -0.00061585	          0.00000000	         -0.00000000	          0.00000000	          0.00000000	         -0.00095926	          0.00000000	
          3.85000000	         -0.00000000	         -0.00000000	          0.00000000	          0.00000000	          0.00000000	          0.00000000	          0.08461375	          0.42460511	         -0.02623248	         -0.00067115	          0.00000000	         -0.00029889	          0.00000000	         -0.00000000	          0.00000000	          0.00000000	         -0.00811674	          0.00000000	
          3.85500000	         -0.00000000	         -0.00000000	          0.00000000	          0.00000000	          0.00000000	          0.00000000	          0.08966949	          0.44285421	         -0.02253649	         -0.00021074	          0.00000000	         -0.00007199	          0.00000000	         -0.00000000	          0.00000000	          0.00000000	         -0.01206475	          0.00000000	
          3.86000000	         -0.00000000	         -0.00000000	          0.00000000	          0.00000000	          0.00000000	          0.00000000	          0.08581986	          0.41953259	         -0.01838396	          0.00010118	          0.00000000	          0.00007921	          0.00000000	         -0.00000000	          0.00000000	          0.00000000	         -0.01364236	          0.00000000	
          3.86500000	         -0.00000000	          0.00000000	          0.00000000	          0.00000000	          0.00000000	          0.00000000	          0.07656386	          0.37139693	         -0.01426707	          0.00029320	          0.00000000	          0.00016990	          0.00000000	         -0.00000000	          0.00000000	          0.00000000	         -0.01357510	          0.00000000	
